PathFileType	4	(X/Y/Z)	C:\Users\italobelli\Desktop\GitHub\PTbot_officialCBL\Personal_Results\ABD22_noisy1.trc
DataRate	CameraRate	NumFrames	NumMarkers	Units	OrigDataRate	OrigDataStartFrame	OrigNumFrames
106.125000	106.125000	21	9	m	106.125000	744	850
Frame#	Time		gu		centelbow		EpL		centpxt8		centijc7		ij		ts		aa		ai
			X1	Y1	Z1	X2	Y2	Z2	X3	Y3	Z3	X4	Y4	Z4	X5	Y5	Z5	X6	Y6	Z6	X7	Y7	Z7	X8	Y8	Z8	X9	Y9	Z9

744	7.0012	-0.10255	0.0015366	0.15869	-0.12068	-0.23938	0.18006	-0.12379	-0.23073	0.21096	-0.046816	-0.15316	-0.008669	-0.046816	0.031938	-0.008669	0	0	0	-0.1276	0.028704	0.033352	-0.13416	0.035727	0.15223	-0.13736	-0.083821	0.044691
745	7.0106	-0.10255	0.0015253	0.15867	-0.12076	-0.23949	0.18018	-0.12388	-0.23085	0.21108	-0.046816	-0.15316	-0.008669	-0.046816	0.031938	-0.008669	0	0	0	-0.1276	0.028704	0.033344	-0.13416	0.035731	0.15222	-0.13739	-0.08382	0.044691
746	7.02	-0.10255	0.0015134	0.15864	-0.12083	-0.23961	0.1803	-0.12397	-0.23098	0.21119	-0.046816	-0.15316	-0.008669	-0.046816	0.031938	-0.008669	0	0	0	-0.1276	0.028705	0.033335	-0.13416	0.035735	0.15221	-0.13741	-0.083819	0.04469
747	7.0294	-0.10255	0.001501	0.15862	-0.12091	-0.23974	0.18042	-0.12405	-0.23112	0.21131	-0.046816	-0.15316	-0.008669	-0.046816	0.031938	-0.008669	0	0	0	-0.12761	0.028705	0.033326	-0.13415	0.035739	0.1522	-0.13743	-0.083818	0.044688
748	7.0389	-0.10255	0.001488	0.1586	-0.12099	-0.23987	0.18055	-0.12414	-0.23126	0.21143	-0.046816	-0.15316	-0.008669	-0.046816	0.031938	-0.008669	0	0	0	-0.12761	0.028706	0.033317	-0.13415	0.035743	0.15219	-0.13745	-0.083817	0.044685
749	7.0483	-0.10256	0.0014746	0.15857	-0.12107	-0.24001	0.18067	-0.12423	-0.2314	0.21156	-0.046816	-0.15316	-0.008669	-0.046816	0.031938	-0.008669	0	0	0	-0.12761	0.028706	0.033308	-0.13415	0.035747	0.15218	-0.13748	-0.083815	0.044681
750	7.0577	-0.10256	0.0014607	0.15855	-0.12114	-0.24015	0.1808	-0.12432	-0.23156	0.21168	-0.046816	-0.15316	-0.008669	-0.046816	0.031938	-0.008669	0	0	0	-0.12761	0.028707	0.033298	-0.13414	0.035752	0.15217	-0.1375	-0.083813	0.044676
751	7.0671	-0.10256	0.0014463	0.15853	-0.12122	-0.2403	0.18093	-0.12441	-0.23171	0.21181	-0.046816	-0.15316	-0.008669	-0.046816	0.031938	-0.008669	0	0	0	-0.12762	0.028708	0.033288	-0.13414	0.035756	0.15216	-0.13753	-0.083811	0.04467
752	7.0766	-0.10256	0.0014316	0.1585	-0.1213	-0.24045	0.18106	-0.12449	-0.23187	0.21194	-0.046816	-0.15316	-0.008669	-0.046816	0.031938	-0.008669	0	0	0	-0.12762	0.028708	0.033277	-0.13414	0.03576	0.15215	-0.13755	-0.083809	0.044663
753	7.086	-0.10256	0.0014165	0.15848	-0.12137	-0.24061	0.18119	-0.12458	-0.23204	0.21207	-0.046816	-0.15316	-0.008669	-0.046816	0.031938	-0.008669	0	0	0	-0.12762	0.028709	0.033266	-0.13413	0.035764	0.15214	-0.13757	-0.083806	0.044656
754	7.0954	-0.10255	0.001401	0.15845	-0.12145	-0.24078	0.18133	-0.12467	-0.23221	0.2122	-0.046816	-0.15316	-0.008669	-0.046816	0.031938	-0.008669	0	0	0	-0.12762	0.02871	0.033256	-0.13413	0.035768	0.15213	-0.1376	-0.083804	0.044648
755	7.1048	-0.10255	0.0013852	0.15843	-0.12153	-0.24095	0.18147	-0.12476	-0.23238	0.21234	-0.046816	-0.15316	-0.008669	-0.046816	0.031938	-0.008669	0	0	0	-0.12763	0.028711	0.033245	-0.13412	0.035773	0.15212	-0.13762	-0.083801	0.044639
756	7.1143	-0.10255	0.001369	0.1584	-0.12161	-0.24112	0.1816	-0.12485	-0.23256	0.21247	-0.046816	-0.15316	-0.008669	-0.046816	0.031938	-0.008669	0	0	0	-0.12763	0.028712	0.033233	-0.13412	0.035777	0.15211	-0.13764	-0.083798	0.04463
757	7.1237	-0.10255	0.0013526	0.15838	-0.12168	-0.2413	0.18175	-0.12494	-0.23274	0.21261	-0.046816	-0.15316	-0.008669	-0.046816	0.031938	-0.008669	0	0	0	-0.12763	0.028714	0.033222	-0.13411	0.035781	0.1521	-0.13767	-0.083795	0.04462
758	7.1331	-0.10255	0.0013359	0.15835	-0.12176	-0.24148	0.18189	-0.12503	-0.23292	0.21275	-0.046816	-0.15316	-0.008669	-0.046816	0.031938	-0.008669	0	0	0	-0.12763	0.028715	0.03321	-0.13411	0.035785	0.15209	-0.13769	-0.083792	0.044609
759	7.1425	-0.10255	0.001319	0.15833	-0.12184	-0.24166	0.18203	-0.12512	-0.23311	0.21289	-0.046816	-0.15316	-0.008669	-0.046816	0.031938	-0.008669	0	0	0	-0.12764	0.028716	0.033198	-0.1341	0.035789	0.15208	-0.13772	-0.083788	0.044598
760	7.1519	-0.10255	0.0013019	0.1583	-0.12192	-0.24185	0.18218	-0.12521	-0.2333	0.21304	-0.046816	-0.15316	-0.008669	-0.046816	0.031938	-0.008669	0	0	0	-0.12764	0.028717	0.033186	-0.1341	0.035794	0.15207	-0.13774	-0.083785	0.044586
761	7.1614	-0.10254	0.0012846	0.15827	-0.122	-0.24204	0.18233	-0.1253	-0.23349	0.21318	-0.046816	-0.15316	-0.008669	-0.046816	0.031938	-0.008669	0	0	0	-0.12764	0.028718	0.033174	-0.13409	0.035798	0.15205	-0.13776	-0.083782	0.044574
762	7.1708	-0.10254	0.0012672	0.15825	-0.12207	-0.24223	0.18248	-0.12539	-0.23368	0.21333	-0.046816	-0.15316	-0.008669	-0.046816	0.031938	-0.008669	0	0	0	-0.12764	0.02872	0.033162	-0.13409	0.035802	0.15204	-0.13779	-0.083778	0.044562
763	7.1802	-0.10254	0.0012496	0.15822	-0.12215	-0.24243	0.18263	-0.12548	-0.23388	0.21348	-0.046816	-0.15316	-0.008669	-0.046816	0.031938	-0.008669	0	0	0	-0.12764	0.028721	0.03315	-0.13408	0.035806	0.15203	-0.13781	-0.083774	0.044549
764	7.1896	-0.10253	0.0012319	0.15819	-0.12223	-0.24263	0.18278	-0.12557	-0.23408	0.21364	-0.046816	-0.15316	-0.008669	-0.046816	0.031938	-0.008669	0	0	0	-0.12765	0.028722	0.033138	-0.13407	0.03581	0.15202	-0.13784	-0.08377	0.044536
